<svg width="541" height="98" viewBox="0 0 541 98" fill="none" xmlns="http://www.w3.org/2000/svg">
<g filter="url(#filter0_di_11_13)">
<path d="M18.7612 5.34058e-05V69.8182H3.99982V5.34058e-05H18.7612ZM30.9061 69.8182V5.34058e-05H58.4515C63.747 5.34058e-05 68.2583 1.01142 71.9856 3.03415C75.7129 5.03415 78.5538 7.81824 80.5083 11.3864C82.4856 14.9319 83.4743 19.0228 83.4743 23.6591C83.4743 28.2955 82.4743 32.3864 80.4743 35.9319C78.4743 39.4773 75.5765 42.2387 71.7811 44.216C68.0083 46.1932 63.4402 47.1819 58.0765 47.1819H40.5197V35.3523H55.6902C58.5311 35.3523 60.872 34.8637 62.7129 33.8864C64.5765 32.8864 65.9629 31.5114 66.872 29.7614C67.8038 27.9887 68.2697 25.9546 68.2697 23.6591C68.2697 21.341 67.8038 19.3182 66.872 17.591C65.9629 15.841 64.5765 14.4887 62.7129 13.5341C60.8493 12.5569 58.4856 12.0682 55.622 12.0682H45.6674V69.8182H30.9061ZM90.4032 12.1705V5.34058e-05H147.744V12.1705H126.369V69.8182H111.778V12.1705H90.4032ZM169.801 5.34058e-05L186.676 53.0455H187.324L204.233 5.34058e-05H220.596L196.528 69.8182H177.506L153.403 5.34058e-05H169.801ZM251.219 69.8182V5.34058e-05H278.764C284.059 5.34058e-05 288.571 1.01142 292.298 3.03415C296.025 5.03415 298.866 7.81824 300.821 11.3864C302.798 14.9319 303.787 19.0228 303.787 23.6591C303.787 28.2955 302.787 32.3864 300.787 35.9319C298.787 39.4773 295.889 42.2387 292.094 44.216C288.321 46.1932 283.753 47.1819 278.389 47.1819H260.832V35.3523H276.003C278.844 35.3523 281.184 34.8637 283.025 33.8864C284.889 32.8864 286.275 31.5114 287.184 29.7614C288.116 27.9887 288.582 25.9546 288.582 23.6591C288.582 21.341 288.116 19.3182 287.184 17.591C286.275 15.841 284.889 14.4887 283.025 13.5341C281.162 12.5569 278.798 12.0682 275.934 12.0682H265.98V69.8182H251.219ZM327.625 5.34058e-05V69.8182H313.102V5.34058e-05H327.625ZM354.19 70.8069C350.849 70.8069 347.872 70.2273 345.258 69.0682C342.645 67.8864 340.577 66.1478 339.054 63.8523C337.554 61.5341 336.804 58.6478 336.804 55.1932C336.804 52.2841 337.338 49.841 338.406 47.8637C339.474 45.8864 340.929 44.2955 342.77 43.091C344.611 41.8864 346.702 40.9773 349.042 40.3637C351.406 39.7501 353.883 39.3182 356.474 39.0682C359.52 38.7501 361.974 38.4546 363.838 38.1819C365.702 37.8864 367.054 37.4546 367.895 36.8864C368.736 36.3182 369.156 35.4773 369.156 34.3637V34.1591C369.156 32.0001 368.474 30.3296 367.111 29.1478C365.77 27.966 363.861 27.3751 361.383 27.3751C358.77 27.3751 356.69 27.9546 355.145 29.1137C353.599 30.2501 352.577 31.6819 352.077 33.4091L338.645 32.3182C339.327 29.1364 340.667 26.3864 342.667 24.0682C344.667 21.7273 347.247 19.9319 350.406 18.6819C353.588 17.4091 357.27 16.7728 361.452 16.7728C364.361 16.7728 367.145 17.1137 369.804 17.7955C372.486 18.4773 374.861 19.5341 376.929 20.966C379.02 22.3978 380.667 24.2387 381.872 26.4887C383.077 28.716 383.679 31.3864 383.679 34.5001V69.8182H369.906V62.5569H369.497C368.656 64.1932 367.531 65.6364 366.122 66.8864C364.713 68.1137 363.02 69.0796 361.042 69.7841C359.065 70.466 356.781 70.8069 354.19 70.8069ZM358.349 60.7841C360.486 60.7841 362.372 60.3637 364.008 59.5228C365.645 58.6591 366.929 57.5001 367.861 56.0455C368.792 54.591 369.258 52.9432 369.258 51.1023V45.5455C368.804 45.841 368.179 46.1137 367.383 46.3637C366.611 46.591 365.736 46.8069 364.758 47.0114C363.781 47.1932 362.804 47.3637 361.827 47.5228C360.849 47.6591 359.963 47.7841 359.167 47.8978C357.463 48.1478 355.974 48.5455 354.702 49.091C353.429 49.6364 352.44 50.3751 351.736 51.3069C351.031 52.216 350.679 53.3523 350.679 54.716C350.679 56.6932 351.395 58.2046 352.827 59.2501C354.281 60.2728 356.122 60.7841 358.349 60.7841ZM402.037 89.4546C400.196 89.4546 398.469 89.3069 396.855 89.0114C395.264 88.7387 393.946 88.3864 392.9 87.9546L396.173 77.1137C397.878 77.6364 399.412 77.9205 400.775 77.966C402.162 78.0114 403.355 77.6932 404.355 77.0114C405.378 76.3296 406.207 75.1705 406.844 73.5341L407.696 71.3182L388.912 17.4546H404.184L415.025 55.9091H415.571L426.514 17.4546H441.889L421.537 75.4773C420.559 78.2955 419.23 80.7501 417.548 82.841C415.889 84.9546 413.787 86.5796 411.241 87.716C408.696 88.8751 405.628 89.4546 402.037 89.4546ZM471.497 70.841C466.111 70.841 461.474 69.7501 457.588 67.5682C453.724 65.3637 450.747 62.2501 448.656 58.2273C446.565 54.1819 445.52 49.3978 445.52 43.8751C445.52 38.4887 446.565 33.7614 448.656 29.6932C450.747 25.6251 453.69 22.4546 457.486 20.1819C461.304 17.9091 465.781 16.7728 470.917 16.7728C474.372 16.7728 477.588 17.3296 480.565 18.4432C483.565 19.5341 486.179 21.1819 488.406 23.3864C490.656 25.591 492.406 28.3637 493.656 31.7046C494.906 35.0228 495.531 38.9091 495.531 43.3637V47.3523H451.315V38.3523H481.861C481.861 36.2614 481.406 34.4091 480.497 32.7955C479.588 31.1819 478.327 29.9205 476.713 29.0114C475.122 28.0796 473.27 27.6137 471.156 27.6137C468.952 27.6137 466.997 28.1251 465.292 29.1478C463.611 30.1478 462.292 31.5001 461.338 33.2046C460.383 34.8864 459.895 36.7614 459.872 38.8296V47.3864C459.872 49.9773 460.349 52.216 461.304 54.1023C462.281 55.9887 463.656 57.4432 465.429 58.466C467.202 59.4887 469.304 60.0001 471.736 60.0001C473.349 60.0001 474.827 59.7728 476.167 59.3182C477.508 58.8637 478.656 58.1819 479.611 57.2728C480.565 56.3637 481.292 55.2501 481.792 53.9319L495.224 54.8182C494.542 58.0455 493.145 60.8637 491.031 63.2728C488.94 65.6591 486.236 67.5228 482.917 68.8637C479.622 70.1819 475.815 70.841 471.497 70.841ZM505.008 69.8182V17.4546H519.088V26.591H519.633C520.588 23.341 522.19 20.8864 524.44 19.2273C526.69 17.5455 529.281 16.7046 532.213 16.7046C532.94 16.7046 533.724 16.7501 534.565 16.841C535.406 16.9319 536.145 17.0569 536.781 17.216V30.1023C536.099 29.8978 535.156 29.716 533.952 29.5569C532.747 29.3978 531.645 29.3182 530.645 29.3182C528.508 29.3182 526.599 29.7841 524.917 30.716C523.258 31.6251 521.94 32.8978 520.963 34.5341C520.008 36.1705 519.531 38.0569 519.531 40.1932V69.8182H505.008Z" fill="#002FFF"/>
</g>
<defs>
<filter id="filter0_di_11_13" x="0" y="0" width="540.781" height="97.4546" filterUnits="userSpaceOnUse" color-interpolation-filters="sRGB">
<feFlood flood-opacity="0" result="BackgroundImageFix"/>
<feColorMatrix in="SourceAlpha" type="matrix" values="0 0 0 0 0 0 0 0 0 0 0 0 0 0 0 0 0 0 127 0" result="hardAlpha"/>
<feOffset dy="4"/>
<feGaussianBlur stdDeviation="2"/>
<feComposite in2="hardAlpha" operator="out"/>
<feColorMatrix type="matrix" values="0 0 0 0 0 0 0 0 0 0 0 0 0 0 0 0 0 0 0.25 0"/>
<feBlend mode="normal" in2="BackgroundImageFix" result="effect1_dropShadow_11_13"/>
<feBlend mode="normal" in="SourceGraphic" in2="effect1_dropShadow_11_13" result="shape"/>
<feColorMatrix in="SourceAlpha" type="matrix" values="0 0 0 0 0 0 0 0 0 0 0 0 0 0 0 0 0 0 127 0" result="hardAlpha"/>
<feOffset dy="4"/>
<feGaussianBlur stdDeviation="2"/>
<feComposite in2="hardAlpha" operator="arithmetic" k2="-1" k3="1"/>
<feColorMatrix type="matrix" values="0 0 0 0 0 0 0 0 0 0 0 0 0 0 0 0 0 0 0.25 0"/>
<feBlend mode="normal" in2="shape" result="effect2_innerShadow_11_13"/>
</filter>
</defs>
</svg>
